<svg width="36" height="36" viewBox="0 0 36 36" fill="none" xmlns="http://www.w3.org/2000/svg">
<path fill-rule="evenodd" clip-rule="evenodd" d="M29.9 5.125H21.75C21.2668 5.125 20.875 5.51675 20.875 6C20.875 6.48325 21.2668 6.875 21.75 6.875H27.8876L19.6313 15.1313C19.2896 15.473 19.2896 16.027 19.6313 16.3687C19.973 16.7104 20.527 16.7104 20.8687 16.3687L29.125 8.11244V14.25C29.125 14.7332 29.5168 15.125 30 15.125C30.4832 15.125 30.875 14.7332 30.875 14.25V6.1C30.875 6.08272 30.8745 6.06555 30.8737 6.04849C30.8869 5.80869 30.8019 5.56447 30.6187 5.38128C30.4355 5.19809 30.1913 5.11311 29.9515 5.12634C29.9344 5.12545 29.9173 5.125 29.9 5.125ZM7.625 11C7.00368 11 6.5 11.5037 6.5 12.125V28.375C6.5 28.9963 7.00368 29.5 7.625 29.5H23.875C24.4963 29.5 25 28.9963 25 28.375V20.25C25 19.7668 25.3918 19.375 25.875 19.375C26.3582 19.375 26.75 19.7668 26.75 20.25V28.375C26.75 29.9628 25.4628 31.25 23.875 31.25H7.625C6.03718 31.25 4.75 29.9628 4.75 28.375V12.125C4.75 10.5372 6.03718 9.25 7.625 9.25H15.75C16.2332 9.25 16.625 9.64175 16.625 10.125C16.625 10.6082 16.2332 11 15.75 11H7.625Z"
  fill="black"/>
</svg>
